<svg width="788.07119140625px" height="128px" xmlns="http://www.w3.org/2000/svg" viewBox="-144.035595703125 11 788.07119140625 128" style="background: none;" preserveAspectRatio="xMidYMid"><defs><filter id="editing-metal-beveled"><feGaussianBlur stdDeviation="4" in="SourceAlpha" result="blur"></feGaussianBlur><feSpecularLighting surfaceScale="5" specularConstant="0.8" specularExponent="7.5" lighting-color="#eb6896" in="blur" result="specular"><fePointLight x="-250" y="-50" z="300"></fePointLight></feSpecularLighting><feComposite operator="in" in="specular" in2="SourceAlpha" result="comp"></feComposite><feComposite in="SourceGraphic" in2="comp" operator="arithmetic" k1="0" k2="1" k3="1" k4="0"></feComposite></filter></defs><g filter="url(#editing-metal-beveled)"><g transform="translate(-31.11444067955017, 99.39500045776367)"><path d="M-1.57-45.37L14.30-45.37L14.30-44.11L9.26-42.27L21.93-9.32L22.18-9.32L34.76-42.27L30.18-44.11L30.18-45.37L44.24-45.37L44.24-44.11L38.88-41.90L22.30 0.62L19.90 0.62L3.54-41.90L-1.57-44.11L-1.57-45.37ZM56.51-3.48L62.17-1.26L62.17 0L45.16 0L45.16-1.26L50.82-3.48L50.82-26.58L45.16-28.79L45.16-30.05L55.86-32.27L56.51-31.62L56.51-3.48ZM48.76-41.53L48.76-41.53L48.76-41.53Q48.76-43.13 49.88-44.25L49.88-44.25L49.88-44.25Q51.00-45.37 52.66-45.37L52.66-45.37L52.66-45.37Q54.26-45.37 55.39-44.25L55.39-44.25L55.39-44.25Q56.51-43.13 56.51-41.53L56.51-41.53L56.51-41.53Q56.51-39.87 55.39-38.74L55.39-38.74L55.39-38.74Q54.26-37.62 52.66-37.62L52.66-37.62L52.66-37.62Q51.00-37.62 49.88-38.74L49.88-38.74L49.88-38.74Q48.76-39.87 48.76-41.53ZM77.58-3.48L82.93-1.26L82.93 0L66.26 0L66.26-1.26L71.92-3.48L71.92-26.58L66.26-28.79L66.26-30.05L76.97-32.27L77.58-31.62L77.58-27.90L77.58-27.90Q79.77-29.93 82.69-31.10L82.69-31.10L82.69-31.10Q85.61-32.27 88.44-32.27L88.44-32.27L88.44-32.27Q92.56-32.27 95.28-29.75L95.28-29.75L95.28-29.75Q98.01-27.22 98.01-22.24L98.01-22.24L98.01-3.48L103.67-1.26L103.67 0L86.96 0L86.96-1.26L92.35-3.48L92.35-20.36L92.35-20.36Q92.35-24.79 90.76-26.52L90.76-26.52L90.76-26.52Q89.18-28.24 85.33-28.24L85.33-28.24L85.33-28.24Q80.75-28.24 77.58-25.50L77.58-25.50L77.58-3.48ZM118.49-3.48L124.15-1.26L124.15 0L107.14 0L107.14-1.26L112.80-3.48L112.80-26.58L107.14-28.79L107.14-30.05L117.85-32.27L118.49-31.62L118.49-3.48ZM110.74-41.53L110.74-41.53L110.74-41.53Q110.74-43.13 111.86-44.25L111.86-44.25L111.86-44.25Q112.99-45.37 114.65-45.37L114.65-45.37L114.65-45.37Q116.25-45.37 117.37-44.25L117.37-44.25L117.37-44.25Q118.49-43.13 118.49-41.53L118.49-41.53L118.49-41.53Q118.49-39.87 117.37-38.74L117.37-38.74L117.37-38.74Q116.25-37.62 114.65-37.62L114.65-37.62L114.65-37.62Q112.99-37.62 111.86-38.74L111.86-38.74L111.86-38.74Q110.74-39.87 110.74-41.53ZM148.39-29.10L138.30-27.22L138.30-10.09L138.30-10.09Q138.30-8.00 138.63-6.58L138.63-6.58L138.63-6.58Q138.95-5.17 139.58-4.48L139.58-4.48L139.58-4.48Q140.21-3.78 140.92-3.52L140.92-3.52L140.92-3.52Q141.63-3.26 142.61-3.26L142.61-3.26L142.61-3.26Q144.46-3.26 145.70-3.58L145.70-3.58L145.70-3.58Q146.95-3.91 148.39-4.80L148.39-4.80L149.35-2.83L149.35-2.83Q145.01 0.77 139.84 0.77L139.84 0.77L139.84 0.77Q136.83 0.77 134.74-1.61L134.74-1.61L134.74-1.61Q132.64-4.00 132.64-8.31L132.64-8.31L132.64-27.22L126.92-28.79L126.92-30.05L132.89-31.32L135.17-39.81L138.30-39.81L138.30-31.32L147.32-31.32L148.39-30.95L148.39-29.10ZM164.91-3.48L170.27-1.26L170.27 0L153.56 0L153.56-1.26L159.25-3.48L159.25-42.33L153.56-44.54L153.56-45.80L164.30-48.02L164.91-47.37L164.91-27.90L164.91-27.90Q167.07-29.93 169.99-31.10L169.99-31.10L169.99-31.10Q172.91-32.27 175.74-32.27L175.74-32.27L175.74-32.27Q179.89-32.27 182.62-29.75L182.62-29.75L182.62-29.75Q185.34-27.22 185.34-22.24L185.34-22.24L185.34-3.48L191.00-1.26L191.00 0L174.30 0L174.30-1.26L179.65-3.48L179.65-20.36L179.65-20.36Q179.65-24.79 178.08-26.52L178.08-26.52L178.08-26.52Q176.51-28.24 172.67-28.24L172.67-28.24L172.67-28.24Q168.08-28.24 164.91-25.50L164.91-25.50L164.91-3.48ZM218.72-4.28L224.41-2.71L224.41-1.57L217.73 0.49L217.73 0.49Q215.76 0.92 214.41 0.05L214.41 0.05L214.41 0.05Q213.06-0.83 213.06-2.95L213.06-2.95L213.06-2.95Q209.06 0.77 203.67 0.77L203.67 0.77L203.67 0.77Q199.21 0.77 197.00-1.54L197.00-1.54L197.00-1.54Q194.78-3.85 194.78-7.32L194.78-7.32L194.78-7.32Q194.78-9.94 195.95-11.95L195.95-11.95L195.95-11.95Q197.12-13.97 198.94-15.17L198.94-15.17L198.94-15.17Q200.75-16.37 203.27-17.17L203.27-17.17L203.27-17.17Q205.80-17.96 208.13-18.27L208.13-18.27L208.13-18.27Q210.47-18.58 213.06-18.64L213.06-18.64L213.06-21.59L213.06-21.59Q213.06-25.90 211.70-27.59L211.70-27.59L211.70-27.59Q210.35-29.29 207.21-29.29L207.21-29.29L207.21-29.29Q204.84-29.29 201.64-28.55L201.64-28.55L198.38-21.41L196.88-21.41L196.88-30.18L196.88-30.18Q199.64-31.16 202.72-31.72L202.72-31.72L202.72-31.72Q205.80-32.27 208.13-32.27L208.13-32.27L208.13-32.27Q213.21-32.27 215.96-30.22L215.96-30.22L215.96-30.22Q218.72-28.18 218.72-23.50L218.72-23.50L218.72-4.28ZM206.26-2.83L206.26-2.83L206.26-2.83Q208.01-2.83 209.86-3.68L209.86-3.68L209.86-3.68Q211.70-4.52 213.06-6.00L213.06-6.00L213.06-16.12L213.06-16.12Q206.90-15.84 203.67-13.61L203.67-13.61L203.67-13.61Q200.44-11.38 200.44-7.94L200.44-7.94L200.44-7.94Q200.44-5.29 202.14-4.06L202.14-4.06L202.14-4.06Q203.83-2.83 206.26-2.83ZM251.48-12.27L254.49-4.03L254.49-4.03Q259.32-2.83 262.55-2.83L262.55-2.83L262.55-2.83Q264.21-2.83 265.83-3.18L265.83-3.18L265.83-3.18Q267.44-3.54 268.72-4.40L268.72-4.40L268.72-4.40Q270.00-5.26 270.78-6.69L270.78-6.69L270.78-6.69Q271.56-8.12 271.56-10.27L271.56-10.27L271.56-10.27Q271.56-11.69 271.16-12.94L271.16-12.94L271.16-12.94Q270.76-14.18 269.70-15.41L269.70-15.41L269.70-15.41Q268.64-16.64 266.83-17.92L266.83-17.92L266.83-17.92Q265.01-19.20 262.18-20.73L262.18-20.73L262.18-20.73Q259.11-22.39 256.88-23.89L256.88-23.89L256.88-23.89Q254.65-25.38 253.18-26.98L253.18-26.98L253.18-26.98Q251.72-28.58 251.03-30.42L251.03-30.42L251.03-30.42Q250.34-32.27 250.34-34.64L250.34-34.64L250.34-34.64Q250.34-46.23 264.83-46.23L264.83-46.23L264.83-46.23Q269.96-46.23 275.66-44.79L275.66-44.79L275.66-34.15L274.39-34.15L271.07-41.96L271.07-41.96Q267.81-42.64 265.20-42.64L265.20-42.64L265.20-42.64Q260.80-42.64 258.34-40.96L258.34-40.96L258.34-40.96Q255.88-39.28 255.88-35.78L255.88-35.78L255.88-35.78Q255.88-34.55 256.21-33.44L256.21-33.44L256.21-33.44Q256.55-32.33 257.60-31.13L257.60-31.13L257.60-31.13Q258.64-29.93 260.55-28.58L260.55-28.58L260.55-28.58Q262.46-27.22 265.57-25.50L265.57-25.50L265.57-25.50Q268.64-23.84 270.93-22.43L270.93-22.43L270.93-22.43Q273.23-21.01 274.73-19.52L274.73-19.52L274.73-19.52Q276.24-18.03 276.99-16.27L276.99-16.27L276.99-16.27Q277.75-14.52 277.75-12.21L277.75-12.21L277.75-12.21Q277.75-8.52 276.52-6.04L276.52-6.04L276.52-6.04Q275.29-3.57 273.21-2.05L273.21-2.05L273.21-2.05Q271.13-0.52 268.37 0.12L268.37 0.12L268.37 0.12Q265.60 0.77 262.55 0.77L262.55 0.77L262.55 0.77Q260.77 0.77 259.24 0.66L259.24 0.66L259.24 0.66Q257.72 0.55 256.25 0.32L256.25 0.32L256.25 0.32Q254.77 0.09 253.23-0.29L253.23-0.29L253.23-0.29Q251.69-0.68 249.88-1.20L249.88-1.20L249.88-12.27L251.48-12.27ZM295.07-3.48L300.73-1.26L300.73 0L283.72 0L283.72-1.26L289.38-3.48L289.38-26.58L283.72-28.79L283.72-30.05L294.42-32.27L295.07-31.62L295.07-3.48ZM287.31-41.53L287.31-41.53L287.31-41.53Q287.31-43.13 288.44-44.25L288.44-44.25L288.44-44.25Q289.56-45.37 291.22-45.37L291.22-45.37L291.22-45.37Q292.82-45.37 293.94-44.25L293.94-44.25L293.94-44.25Q295.07-43.13 295.07-41.53L295.07-41.53L295.07-41.53Q295.07-39.87 293.94-38.74L293.94-38.74L293.94-38.74Q292.82-37.62 291.22-37.62L291.22-37.62L291.22-37.62Q289.56-37.62 288.44-38.74L288.44-38.74L288.44-38.74Q287.31-39.87 287.31-41.53ZM323.89-31.50L336.93-31.50L336.93-30.24L332.53-28.02L332.53-28.24L321.55 0.06L318.17 0.77L306.02-28.02L301.65-30.24L301.65-31.50L316.72-31.50L316.72-30.24L311.92-28.36L320.81-7.11L328.44-28.42L323.89-30.24L323.89-31.50ZM362.74-4.28L368.43-2.71L368.43-1.57L361.76 0.49L361.76 0.49Q359.79 0.92 358.44 0.05L358.44 0.05L358.44 0.05Q357.08-0.83 357.08-2.95L357.08-2.95L357.08-2.95Q353.08 0.77 347.70 0.77L347.70 0.77L347.70 0.77Q343.24 0.77 341.02-1.54L341.02-1.54L341.02-1.54Q338.81-3.85 338.81-7.32L338.81-7.32L338.81-7.32Q338.81-9.94 339.98-11.95L339.98-11.95L339.98-11.95Q341.15-13.97 342.96-15.17L342.96-15.17L342.96-15.17Q344.78-16.37 347.30-17.17L347.30-17.17L347.30-17.17Q349.82-17.96 352.16-18.27L352.16-18.27L352.16-18.27Q354.50-18.58 357.08-18.64L357.08-18.64L357.08-21.59L357.08-21.59Q357.08-25.90 355.73-27.59L355.73-27.59L355.73-27.59Q354.38-29.29 351.24-29.29L351.24-29.29L351.24-29.29Q348.87-29.29 345.67-28.55L345.67-28.55L342.41-21.41L340.90-21.41L340.90-30.18L340.90-30.18Q343.67-31.16 346.75-31.72L346.75-31.72L346.75-31.72Q349.82-32.27 352.16-32.27L352.16-32.27L352.16-32.27Q357.24-32.27 359.99-30.22L359.99-30.22L359.99-30.22Q362.74-28.18 362.74-23.50L362.74-23.50L362.74-4.28ZM350.28-2.83L350.28-2.83L350.28-2.83Q352.04-2.83 353.88-3.68L353.88-3.68L353.88-3.68Q355.73-4.52 357.08-6.00L357.08-6.00L357.08-16.12L357.08-16.12Q350.93-15.84 347.70-13.61L347.70-13.61L347.70-13.61Q344.47-11.38 344.47-7.94L344.47-7.94L344.47-7.94Q344.47-5.29 346.16-4.06L346.16-4.06L346.16-4.06Q347.85-2.83 350.28-2.83ZM382.89-3.48L390.15-1.26L390.15 0L371.57 0L371.57-1.26L377.23-3.48L377.23-26.58L371.57-28.79L371.57-30.05L382.28-32.27L382.89-31.62L382.89-27.84L382.89-27.84Q387.57-32.27 395.20-32.27L395.20-32.27L395.20-25.44L393.93-25.01L389.44-27.47L389.44-27.47Q388.06-27.47 386.27-26.87L386.27-26.87L386.27-26.87Q384.49-26.27 382.89-25.13L382.89-25.13L382.89-3.48ZM422.88-4.28L428.57-2.71L428.57-1.57L421.90 0.49L421.90 0.49Q419.93 0.92 418.57 0.05L418.57 0.05L418.57 0.05Q417.22-0.83 417.22-2.95L417.22-2.95L417.22-2.95Q413.22 0.77 407.84 0.77L407.84 0.77L407.84 0.77Q403.38 0.77 401.16-1.54L401.16-1.54L401.16-1.54Q398.95-3.85 398.95-7.32L398.95-7.32L398.95-7.32Q398.95-9.94 400.12-11.95L400.12-11.95L400.12-11.95Q401.29-13.97 403.10-15.17L403.10-15.17L403.10-15.17Q404.92-16.37 407.44-17.17L407.44-17.17L407.44-17.17Q409.96-17.96 412.30-18.27L412.30-18.27L412.30-18.27Q414.64-18.58 417.22-18.64L417.22-18.64L417.22-21.59L417.22-21.59Q417.22-25.90 415.87-27.59L415.87-27.59L415.87-27.59Q414.51-29.29 411.38-29.29L411.38-29.29L411.38-29.29Q409.01-29.29 405.81-28.55L405.81-28.55L402.55-21.41L401.04-21.41L401.04-30.18L401.04-30.18Q403.81-31.16 406.89-31.72L406.89-31.72L406.89-31.72Q409.96-32.27 412.30-32.27L412.30-32.27L412.30-32.27Q417.38-32.27 420.13-30.22L420.13-30.22L420.13-30.22Q422.88-28.18 422.88-23.50L422.88-23.50L422.88-4.28ZM410.42-2.83L410.42-2.83L410.42-2.83Q412.18-2.83 414.02-3.68L414.02-3.68L414.02-3.68Q415.87-4.52 417.22-6.00L417.22-6.00L417.22-16.12L417.22-16.12Q411.07-15.84 407.84-13.61L407.84-13.61L407.84-13.61Q404.61-11.38 404.61-7.94L404.61-7.94L404.61-7.94Q404.61-5.29 406.30-4.06L406.30-4.06L406.30-4.06Q407.99-2.83 410.42-2.83ZM443.03-3.48L448.38-1.26L448.38 0L431.71 0L431.71-1.26L437.37-3.48L437.37-26.58L431.71-28.79L431.71-30.05L442.42-32.27L443.03-31.62L443.03-27.96L443.03-27.96Q445.15-29.99 447.94-31.13L447.94-31.13L447.94-31.13Q450.72-32.27 453.55-32.27L453.55-32.27L453.55-32.27Q456.32-32.27 458.56-30.96L458.56-30.96L458.56-30.96Q460.81-29.65 461.95-27.04L461.95-27.04L461.95-27.04Q464.07-29.47 467.13-30.87L467.13-30.87L467.13-30.87Q470.19-32.27 473.33-32.27L473.33-32.27L473.33-32.27Q475.18-32.27 476.81-31.68L476.81-31.68L476.81-31.68Q478.44-31.10 479.74-29.92L479.74-29.92L479.74-29.92Q481.05-28.73 481.82-26.76L481.82-26.76L481.82-26.76Q482.59-24.79 482.59-22.24L482.59-22.24L482.59-3.48L488.28-1.26L488.28 0L471.58 0L471.58-1.26L476.93-3.48L476.93-20.36L476.93-20.36Q476.93-24.76 475.41-26.50L475.41-26.50L475.41-26.50Q473.88-28.24 470.25-28.24L470.25-28.24L470.25-28.24Q465.67-28.24 462.50-25.26L462.50-25.26L462.50-25.26Q462.81-23.72 462.81-22.24L462.81-22.24L462.81-3.48L468.16-1.26L468.16 0L451.80 0L451.80-1.26L457.15-3.48L457.15-20.36L457.15-20.36Q457.15-24.76 455.63-26.50L455.63-26.50L455.63-26.50Q454.10-28.24 450.47-28.24L450.47-28.24L450.47-28.24Q446.11-28.24 443.03-25.50L443.03-25.50L443.03-3.48ZM516.00-4.28L521.69-2.71L521.69-1.57L515.01 0.49L515.01 0.49Q513.04 0.92 511.69 0.05L511.69 0.05L511.69 0.05Q510.34-0.83 510.34-2.95L510.34-2.95L510.34-2.95Q506.34 0.77 500.95 0.77L500.95 0.77L500.95 0.77Q496.49 0.77 494.28-1.54L494.28-1.54L494.28-1.54Q492.06-3.85 492.06-7.32L492.06-7.32L492.06-7.32Q492.06-9.94 493.23-11.95L493.23-11.95L493.23-11.95Q494.40-13.97 496.22-15.17L496.22-15.17L496.22-15.17Q498.03-16.37 500.55-17.17L500.55-17.17L500.55-17.17Q503.08-17.96 505.42-18.27L505.42-18.27L505.42-18.27Q507.75-18.58 510.34-18.64L510.34-18.64L510.34-21.59L510.34-21.59Q510.34-25.90 508.98-27.59L508.98-27.59L508.98-27.59Q507.63-29.29 504.49-29.29L504.49-29.29L504.49-29.29Q502.12-29.29 498.92-28.55L498.92-28.55L495.66-21.41L494.16-21.41L494.16-30.18L494.16-30.18Q496.92-31.16 500.00-31.72L500.00-31.72L500.00-31.72Q503.08-32.27 505.42-32.27L505.42-32.27L505.42-32.27Q510.49-32.27 513.24-30.22L513.24-30.22L513.24-30.22Q516.00-28.18 516.00-23.50L516.00-23.50L516.00-4.28ZM503.54-2.83L503.54-2.83L503.54-2.83Q505.29-2.83 507.14-3.68L507.14-3.68L507.14-3.68Q508.98-4.52 510.34-6.00L510.34-6.00L510.34-16.12L510.34-16.12Q504.18-15.84 500.95-13.61L500.95-13.61L500.95-13.61Q497.72-11.38 497.72-7.94L497.72-7.94L497.72-7.94Q497.72-5.29 499.42-4.06L499.42-4.06L499.42-4.06Q501.11-2.83 503.54-2.83ZM536.15-3.48L541.50-1.26L541.50 0L524.83 0L524.83-1.26L530.49-3.48L530.49-26.58L524.83-28.79L524.83-30.05L535.53-32.27L536.15-31.62L536.15-27.90L536.15-27.90Q538.33-29.93 541.25-31.10L541.25-31.10L541.25-31.10Q544.17-32.27 547.00-32.27L547.00-32.27L547.00-32.27Q551.13-32.27 553.85-29.75L553.85-29.75L553.85-29.75Q556.57-27.22 556.57-22.24L556.57-22.24L556.57-3.48L562.23-1.26L562.23 0L545.53 0L545.53-1.26L550.91-3.48L550.91-20.36L550.91-20.36Q550.91-24.79 549.33-26.52L549.33-26.52L549.33-26.52Q547.74-28.24 543.90-28.24L543.90-28.24L543.90-28.24Q539.31-28.24 536.15-25.50L536.15-25.50L536.15-3.48Z" fill="#fd99a7"></path></g></g><style>text {
  font-size: 64px;
  font-family: Arial Black;
  dominant-baseline: central;
  text-anchor: middle;
}</style></svg>